Coordinates
version=1
nRows=12
nColumns=46
inDegrees=yes

Units are S.I. units (second, meters, Newtons, ...)
Angles are in degrees.

endheader
time	pelvis_tilt	pelvis_list	pelvis_rotation	pelvis_tx	pelvis_ty	pelvis_tz	bb_angle	bb_tx	bb_ty	bb_tz	hip_flexion_r	hip_adduction_r	hip_rotation_r	knee_angle_r	knee_angle_r_beta	ankle_angle_r	subtalar_angle_r	mtp_angle_r	crank_angle_r	hip_flexion_l	hip_adduction_l	hip_rotation_l	knee_angle_l	knee_angle_l_beta	ankle_angle_l	subtalar_angle_l	mtp_angle_l	crank_angle_l	lumbar_extension	lumbar_bending	lumbar_rotation	arm_flex_r	arm_add_r	arm_rot_r	elbow_flex_r	pro_sup_r	wrist_flex_r	wrist_dev_r	arm_flex_l	arm_add_l	arm_rot_l	elbow_flex_l	pro_sup_l	wrist_flex_l	wrist_dev_l
      7.50000000	    -15.99208504	     -1.17123787	      2.78185075	      0.07017493	      1.09785483	     -0.27787518	      0.00000000	      0.50000000	      0.00000000	      0.25000000	     58.78814393	     -1.00069995	      6.22764031	     50.28039810	      0.87755850	     -0.37440818	    -20.40642791	      0.00000000	      0.00000000	     74.33163711	     -0.47698844	      8.44388688	     99.97707788	      1.74492919	    -27.22748719	    -11.78551624	      0.00000000	      0.00000000	    -65.36296828	     -1.19402987	     -4.64314902	     89.63795524	    -23.32487804	     29.16698768	     69.74142724	     30.59573416	      0.00000000	      0.00000000	     89.65575450	    -30.34846463	     32.29207994	     78.94463340	     36.67759951	      0.00000000	      0.00000000
      7.50500000	    -16.02053474	     -0.65967931	      3.42656627	      0.07068886	      1.09798848	     -0.27728132	      0.00000000	      0.50000000	      0.00000000	      0.25000000	     57.03895429	     -1.79461937	      6.51418701	     47.80961007	      0.83443511	     -1.32602084	    -20.13426303	      0.00000000	      0.00000000	     75.63266397	      0.18769461	      8.23082648	    101.62834819	      1.77374929	    -26.45695387	    -11.35369019	      0.00000000	      0.00000000	    -65.34777385	     -1.27267724	     -5.48757191	     89.62078043	    -23.41934888	     29.29748063	     69.36014537	     30.55863298	      0.00000000	      0.00000000	     89.66041966	    -30.14292894	     32.31698003	     79.03270722	     36.58747222	      0.00000000	      0.00000000
      7.51000000	    -16.17386954	     -0.07909807	      4.04853079	      0.07114833	      1.09822437	     -0.27683943	      0.00000000	      0.50000000	      0.00000000	      0.25000000	     55.40806581	     -2.67802690	      6.76087498	     45.30356217	      0.79069632	     -2.19053947	    -19.65400108	      0.00000000	      0.00000000	     77.03753620	      0.89189989	      7.91254341	    103.18598891	      1.80093525	    -25.65200787	    -11.03596080	      0.00000000	      0.00000000	    -65.26374958	     -1.37978748	     -6.28386087	     89.60247258	    -23.53527917	     29.37071629	     69.06211254	     30.52432312	      0.00000000	      0.00000000	     89.66767160	    -29.90915235	     32.36943379	     79.12107217	     36.52767374	      0.00000000	      0.00000000
      7.51500000	    -16.19293011	      0.35451985	      4.65652879	      0.07164720	      1.09873893	     -0.27620847	      0.00000000	      0.50000000	      0.00000000	      0.25000000	     53.62918294	     -3.44176494	      6.79719852	     42.83329117	      0.74758196	     -3.35724365	    -19.51103557	      0.00000000	      0.00000000	     78.35353341	      1.38582626	      7.72541925	    104.72497530	      1.82779563	    -24.43125240	     -9.89805987	      0.00000000	      0.00000000	    -65.27498166	     -1.42555232	     -7.20821784	     89.60230225	    -23.29597877	     29.64428695	     68.17721359	     30.45283871	      0.00000000	      0.00000000	     89.67380817	    -29.84591652	     32.33798783	     79.25137526	     36.11880636	      0.00000000	      0.00000000
      7.52000000	    -16.32263509	      0.94429293	      5.30846867	      0.07201195	      1.09928829	     -0.27585627	      0.00000000	      0.50000000	      0.00000000	      0.25000000	     52.02574655	     -4.46480550	      6.70786250	     40.49885717	      0.70683840	     -4.31776077	    -18.76434069	      0.00000000	      0.00000000	     79.74403930	      2.04863597	      7.33807056	    106.10910912	      1.85195332	    -23.53301513	     -9.42516797	      0.00000000	      0.00000000	    -65.27761516	     -1.51017518	     -8.02228970	     89.58503405	    -23.42085686	     29.73154894	     67.82148002	     30.42660276	      0.00000000	      0.00000000	     89.68431260	    -29.56674595	     32.35467753	     79.43136591	     35.98970375	      0.00000000	      0.00000000
      7.52500000	    -16.69769303	      1.48996592	      5.83279908	      0.07231991	      1.09934205	     -0.27524673	      0.00000000	      0.50000000	      0.00000000	      0.25000000	     50.77623658	     -5.37456457	      6.58664630	     38.35026830	      0.66933845	     -5.06406463	    -17.91192729	      0.00000000	      0.00000000	     81.44306712	      2.47684462	      6.84342696	    107.44869289	      1.87533347	    -22.80984392	     -9.27403065	      0.00000000	      0.00000000	    -65.02132651	     -1.72037143	     -8.82077896	     89.54352283	    -23.61027842	     29.67318880	     67.71294440	     30.41892768	      0.00000000	      0.00000000	     89.69064257	    -29.29578840	     32.40004084	     79.51938615	     35.96289506	      0.00000000	      0.00000000
      7.53000000	    -16.68885287	      2.04887829	      6.56107078	      0.07260935	      1.10041328	     -0.27506560	      0.00000000	      0.50000000	      0.00000000	      0.25000000	     49.10427171	     -6.53011745	      5.99585658	     36.22894306	      0.63231434	     -6.05467697	    -16.76473448	      0.00000000	      0.00000000	     82.65761337	      3.16745835	      6.50582172	    108.61734668	      1.89573032	    -21.63632891	     -8.16015421	      0.00000000	      0.00000000	    -65.20267920	     -1.65628949	     -9.54877187	     89.54961220	    -23.70902163	     29.87708587	     67.14701516	     30.38698214	      0.00000000	      0.00000000	     89.69410241	    -28.96984813	     32.34304439	     79.66836803	     35.78800152	      0.00000000	      0.00000000
      7.53500000	    -17.10302953	      2.52772148	      6.97179245	      0.07279843	      1.10049844	     -0.27445121	      0.00000000	      0.50000000	      0.00000000	      0.25000000	     48.04045110	     -7.35621374	      5.61946862	     34.33996004	      0.59934537	     -6.88312167	    -15.73407572	      0.00000000	      0.00000000	     84.38404310	      3.41849446	      5.99467304	    109.76961017	      1.91584112	    -20.89139559	     -7.93808417	      0.00000000	      0.00000000	    -64.93953819	     -1.88778703	    -10.17334429	     89.51257517	    -23.86743064	     29.83221005	     67.00244570	     30.37587885	      0.00000000	      0.00000000	     89.70067046	    -28.69897358	     32.38708857	     79.76313630	     35.75010506	      0.00000000	      0.00000000
      7.54000000	    -17.20256224	      2.96562196	      7.60849219	      0.07294485	      1.10125785	     -0.27431577	      0.00000000	      0.50000000	      0.00000000	      0.25000000	     46.67669740	     -8.39356827	      4.67858756	     32.61486138	      0.56923672	     -7.75349245	    -14.23569796	      0.00000000	      0.00000000	     85.73819573	      3.91973553	      5.67275427	    110.79616284	      1.93375784	    -19.60030707	     -6.95865699	      0.00000000	      0.00000000	    -64.98371412	     -1.82401453	    -10.71140105	     89.51139115	    -24.09491546	     29.90490060	     66.48923351	     30.36493481	      0.00000000	      0.00000000	     89.70460836	    -28.28553334	     32.39015467	     79.90155027	     35.56718307	      0.00000000	      0.00000000
      7.54500000	    -17.53907781	      3.36282803	      7.98745818	      0.07313903	      1.10161863	     -0.27368683	      0.00000000	      0.50000000	      0.00000000	      0.25000000	     45.68982468	     -9.16429163	      3.96600780	     31.08116624	      0.54246869	     -8.70824905	    -12.99489414	      0.00000000	      0.00000000	     87.34516031	      4.09425345	      5.20239561	    111.69932704	      1.94952103	    -18.96003560	     -6.47527429	      0.00000000	      0.00000000	    -64.81807438	     -1.97484705	    -11.14329769	     89.48589742	    -24.26427716	     29.83670916	     66.35781028	     30.37671143	      0.00000000	      0.00000000	     89.70823473	    -28.00413137	     32.40315425	     80.00129094	     35.48596960	      0.00000000	      0.00000000
      7.55000000	    -17.69078892	      3.67336606	      8.52745096	      0.07321438	      1.10214628	     -0.27362422	      0.00000000	      0.50000000	      0.00000000	      0.25000000	     44.61777785	    -10.07519538	      2.66261323	     29.87702884	      0.52145252	     -9.27089664	    -11.35207165	      0.00000000	      0.00000000	     88.72879911	      4.49102562	      4.90301009	    112.48964084	      1.96331461	    -18.06368075	     -5.63071176	      0.00000000	      0.00000000	    -64.81775476	     -1.91605293	    -11.47590871	     89.47046845	    -24.60304170	     29.87206649	     65.98569749	     30.40191529	      0.00000000	      0.00000000	     89.71350033	    -27.53121079	     32.37735959	     80.18409093	     35.30848792	      0.00000000	      0.00000000
      7.55500000	    -17.90235785	      3.88928158	      8.96249634	      0.07312805	      1.10249554	     -0.27332147	      0.00000000	      0.50000000	      0.00000000	      0.25000000	     43.71378358	    -10.79579993	      1.46154518	     28.88059453	      0.50406146	     -9.75527317	     -9.74286114	      0.00000000	      0.00000000	     90.16198824	      4.71047116	      4.61074155	    113.15430085	      1.97491511	    -17.23441764	     -5.41398085	      0.00000000	      0.00000000	    -64.73899935	     -1.87037045	    -11.66436878	     89.45480241	    -24.92411676	     29.83474500	     65.81189923	     30.47248384	      0.00000000	      0.00000000	     89.71985862	    -27.10401127	     32.34214776	     80.29346077	     35.09255117	      0.00000000	      0.00000000
